<?xml version="1.0" standalone="no"?>
<!DOCTYPE svg PUBLIC "-//W3C//DTD SVG 20010904//EN"
 "http://www.w3.org/TR/2001/REC-SVG-20010904/DTD/svg10.dtd">
<svg version="1.0" xmlns="http://www.w3.org/2000/svg"
 width="225.000000pt" height="224.000000pt" viewBox="0 0 225.000000 224.000000"
 preserveAspectRatio="xMidYMid meet">
<metadata>
Created by potrace 1.10, written by Peter Selinger 2001-2011
</metadata>
<g transform="translate(0.000000,224.000000) scale(0.100000,-0.100000)"
fill="#ffffff" stroke="none">
<path d="M920 2226 c-17 -9 -71 -140 -251 -619 -149 -395 -228 -616 -223 -629
3 -10 16 -24 29 -30 53 -24 57 -17 284 588 118 313 217 572 220 576 4 4 765
-170 1118 -257 22 -5 20 -12 -76 -293 -194 -563 -344 -975 -421 -1153 -82
-189 -191 -298 -297 -299 -43 0 -122 30 -167 65 -75 57 -114 168 -96 267 8 40
7 56 -4 72 -8 12 -212 120 -483 255 -488 243 -509 251 -528 204 -4 -10 -9 -63
-11 -118 -6 -110 8 -114 27 -8 17 99 18 103 39 103 11 0 223 -101 470 -225
l450 -225 0 -88 c0 -111 18 -167 76 -231 93 -104 236 -137 335 -79 119 70 198
204 332 563 174 465 409 1150 405 1179 -2 10 -14 27 -28 37 -25 18 -1070 269
-1121 269 -14 0 -35 -10 -46 -22 -11 -13 -107 -252 -213 -533 -105 -280 -200
-529 -210 -552 -21 -47 -46 -60 -36 -18 11 45 433 1156 443 1166 5 5 57 -3
128 -21 66 -16 188 -45 270 -64 154 -35 597 -139 765 -179 71 -17 96 -27 98
-40 6 -29 -351 -1053 -480 -1377 -81 -203 -132 -295 -202 -366 -63 -62 -154
-108 -216 -108 -60 0 -185 59 -238 112 -63 63 -83 111 -92 219 -6 69 -13 100
-27 115 -10 11 -193 108 -408 215 -433 217 -427 215 -453 138 -17 -49 -10
-197 11 -246 8 -19 28 -46 44 -61 48 -46 235 -153 480 -276 128 -64 233 -123
233 -129 0 -7 -4 -13 -10 -13 -19 0 -516 257 -609 315 -133 82 -161 114 -191
210 l-25 80 -3 -50 c-5 -72 15 -133 57 -173 62 -59 247 -168 517 -303 272
-137 291 -143 315 -97 25 47 11 57 -253 190 -281 141 -438 231 -491 280 -31
30 -36 41 -42 102 -6 57 -1 183 8 192 1 1 182 -88 402 -198 l400 -201 1 -76
c2 -149 78 -267 216 -336 65 -32 78 -35 157 -35 73 0 95 4 138 25 102 51 198
173 271 346 120 281 532 1451 532 1509 0 20 -8 34 -22 44 -17 10 -1067 261
-1260 300 -9 2 -26 -1 -38 -8z"/>
<path d="M1056 1879 c-20 -16 -26 -29 -26 -59 0 -73 85 -106 137 -54 21 21 24
32 19 62 -10 67 -76 93 -130 51z m84 -58 c0 -29 -25 -45 -49 -31 -25 13 -27
45 -4 59 23 12 53 -4 53 -28z"/>
<path d="M1253 1798 c-20 -26 -22 -48 -5 -68 21 -26 553 -183 590 -175 12 3
28 17 34 30 23 51 4 61 -287 146 -277 80 -315 88 -332 67z m217 -78 c80 -22
168 -47 195 -55 28 -8 72 -20 99 -28 49 -14 74 -37 41 -37 -19 0 -456 124
-493 140 -23 10 -22 33 1 25 7 -2 77 -22 157 -45z"/>
<path d="M940 1547 c-32 -16 -52 -59 -44 -91 22 -91 158 -75 158 19 0 60 -62
99 -114 72z m60 -52 c20 -24 3 -57 -28 -53 -27 3 -39 26 -28 54 7 18 40 18 56
-1z"/>
<path d="M1120 1450 c-11 -11 -20 -26 -20 -34 0 -40 36 -55 315 -135 257 -73
282 -79 303 -65 25 16 30 65 8 83 -12 10 -553 171 -576 171 -5 0 -19 -9 -30
-20z m311 -101 c233 -67 270 -81 257 -95 -10 -9 -521 140 -526 154 -2 6 3 12
11 12 7 0 124 -32 258 -71z"/>
<path d="M785 1185 c-51 -50 -15 -135 58 -135 45 0 77 34 77 82 0 70 -86 103
-135 53z m89 -41 c3 -9 6 -20 6 -24 0 -15 -37 -31 -54 -24 -16 6 -22 45 -9 57
12 13 51 7 57 -9z"/>
<path d="M986 1104 c-23 -23 -20 -61 7 -78 38 -23 558 -168 583 -162 26 7 39
37 30 71 -7 27 14 19 -353 124 -117 34 -221 61 -232 61 -11 0 -27 -7 -35 -16z
m388 -123 c159 -47 217 -71 170 -71 -10 0 -129 32 -264 70 -135 39 -246 70
-247 70 -2 0 -3 6 -3 14 0 16 34 8 344 -83z"/>
</g>
</svg>
