<?xml version="1.0" encoding="utf-8"?>
<!-- Generator: Adobe Illustrator 24.1.3, SVG Export Plug-In . SVG Version: 6.00 Build 0)  -->
<svg version="1.1" id="Layer_1" xmlns="http://www.w3.org/2000/svg" xmlns:xlink="http://www.w3.org/1999/xlink" x="0px" y="0px"
	 viewBox="0 0 936 576" style="enable-background:new 0 0 936 576;" xml:space="preserve">
<style type="text/css">
	.st0{fill:#FFFFFF;}
</style>
<g>
	<g>
		<path class="st0" d="M180.76,273.25c0,4.3-1.33,8.85-3.97,13.65c-2.65,4.8-5.96,9.18-9.93,13.15c-3.97,3.97-8.27,7.28-12.9,9.93
			c-4.63,2.65-8.93,3.97-12.9,3.97c-1.33,0-2.73-0.33-4.22-0.99c-1.49-0.66-2.9-1.57-4.22-2.73c-1.33-1.16-2.4-2.56-3.23-4.22
			c-0.83-1.65-1.16-3.47-0.99-5.46c0-0.66-0.17-1.36-0.5-2.11c-0.33-0.74-0.5-1.53-0.5-2.36c0-2.31,0.74-3.93,2.23-4.84
			c1.49-0.91,3.06-2.27,4.72-4.09c0.33,0.33,0.7,0.58,1.12,0.74c0.41,0.17,0.78,0.42,1.12,0.74c-1.33,1.16-2.07,2.81-2.23,4.96
			c-0.17,2.15-0.25,3.89-0.25,5.21v7.69h3.47c3.31,0,6.74-1.53,10.3-4.59c3.56-3.06,6.41-6.24,8.56-9.55
			c1.49-2.31,2.48-4.51,2.98-6.58c0.5-2.07,0.74-4.59,0.74-7.57c0-1.99-0.17-4.13-0.5-6.45c-0.33-2.31-0.99-4.42-1.99-6.33
			c-0.99-1.9-2.32-3.51-3.97-4.84c-1.66-1.32-3.72-1.99-6.2-1.99c-3.31,0-7.07,1.49-11.29,4.47c-4.22,2.98-8.4,6.58-12.53,10.79
			c-4.14,4.22-7.9,8.52-11.29,12.9c-3.39,4.39-6,7.98-7.82,10.79c-2.98,4.47-5.63,9.84-7.94,16.13c-2.32,6.29-3.47,12.16-3.47,17.62
			c0,3.64,0.33,7.28,0.99,10.92c0.66,3.64,2.48,7.03,5.46,10.17c1.82,1.82,4.3,3.52,7.44,5.09c3.14,1.57,5.54,2.36,7.2,2.36
			c1.99,0,4.38-0.53,7.2-1.61c2.81-1.07,5.66-2.36,8.56-3.85c2.89-1.49,5.54-3.02,7.94-4.59c2.4-1.57,4.26-2.85,5.58-3.85
			c3.8-3.14,7.48-6.78,11.04-10.92c3.56-4.13,6.91-8.1,10.05-11.91c0.33,0,0.83,0.12,1.49,0.37c0.66,0.25,1.16,0.37,1.49,0.37v3.47
			c0,0.83-0.21,1.36-0.62,1.61c-0.42,0.25-0.79,0.54-1.12,0.87c0.83,1.49,0.95,3.02,0.37,4.59c-0.58,1.57-1.49,3.14-2.73,4.71
			c-1.24,1.57-2.73,3.1-4.47,4.59c-1.74,1.49-3.44,2.98-5.09,4.47c-0.83,0.66-1.61,1.49-2.36,2.48s-1.53,1.9-2.36,2.73
			c-7.28,6.29-14.52,11.29-21.71,15.01c-7.2,3.72-14.76,5.58-22.71,5.58c-0.83,0-1.53-0.12-2.11-0.37c-0.58-0.25-1.2-0.46-1.86-0.62
			c-1.33-0.17-2.94-0.5-4.84-0.99c-1.9-0.5-3.44-1.16-4.59-1.99c-2.32-1.66-4.59-3.76-6.82-6.33c-2.23-2.56-3.85-4.75-4.84-6.58
			c-0.33-0.66-0.54-1.65-0.62-2.98c-0.08-1.32-0.46-2.4-1.12-3.23c-1.16-2.15-1.82-4.38-1.99-6.7c-0.17-2.31-0.25-4.38-0.25-6.2
			c0-5.96,0.62-12.04,1.86-18.24c1.24-6.2,3.68-13.11,7.32-20.72c2.81-5.79,6.29-11.87,10.42-18.24
			c4.13-6.37,9.43-11.95,15.88-16.75c0.66-0.33,1.32-1.16,1.99-2.48c0.66-1.32,1.49-2.23,2.48-2.73c5.79-3.14,11.37-5.91,16.75-8.31
			c5.37-2.4,10.79-3.68,16.25-3.85c1.15,0,2.6-0.16,4.34-0.5c1.74-0.33,3.02-0.5,3.85-0.5c1.82,0,3.88,0.46,6.2,1.36
			c2.31,0.91,4.5,2.07,6.58,3.47c2.07,1.41,3.85,2.85,5.33,4.34c1.49,1.49,2.48,2.81,2.98,3.97c0.33,0.99,0.66,2.23,0.99,3.72
			c0.33,1.49,0.62,2.94,0.87,4.34c0.25,1.41,0.45,2.69,0.62,3.85C180.68,271.93,180.76,272.75,180.76,273.25z M79.52,345.46
			c0.33-1.32,0.5-2.98,0.5-4.96c0-1.98-0.25-3.39-0.74-4.22c-0.33,1.33-0.46,2.81-0.37,4.47C78.98,342.4,79.18,343.97,79.52,345.46z
			 M91.68,291.61c-1.33,2.81-2.77,6-4.34,9.55c-1.57,3.56-2.44,6.74-2.6,9.55c0.66-0.83,1.4-2.02,2.23-3.6
			c0.83-1.57,1.57-3.26,2.23-5.09c0.66-1.82,1.24-3.68,1.74-5.58C91.43,294.55,91.68,292.94,91.68,291.61z M90.19,363.33
			c-0.33-0.66-0.74-0.99-1.24-0.99c-0.5,0-0.91,0.33-1.24,0.99H90.19z M90.93,339.26c0.33-0.5,0.33-1.15,0-1.98
			c-0.33-0.83-0.5-1.4-0.5-1.74l-0.74,4.22L90.93,339.26z M90.93,333.06v-3.47h-0.99v3.47H90.93z M93.66,307.74
			c-1.65,2.48-2.65,5.13-2.98,7.94c0.83-1.32,1.45-2.64,1.86-3.97C92.96,310.39,93.33,309.07,93.66,307.74z M93.41,289.38l-0.74-0.5
			l-0.99,1.74l0.99,0.25L93.41,289.38z M95.4,360.35c0.33-0.33,0.41-0.74,0.25-1.24c-0.17-0.5-0.41-0.91-0.74-1.24
			c-0.33,0-0.5,0.33-0.5,0.99C94.41,359.53,94.74,360.02,95.4,360.35z M107.56,361.59c-1.33-0.99-2.65-1.9-3.97-2.73
			c-1.33-0.83-2.65-1.57-3.97-2.23c0.16,0.66,0.58,1.33,1.24,1.98c0.66,0.66,1.4,1.24,2.23,1.74c0.83,0.5,1.65,0.87,2.48,1.12
			C106.4,361.72,107.06,361.76,107.56,361.59z M105.33,290.37l-2.73,2.73c0.16,0.17,0.33,0.29,0.5,0.37
			c0.16,0.09,0.33,0.21,0.5,0.37c0.16,0.17,0.33,0.25,0.5,0.25c0.33-0.66,0.62-1.36,0.87-2.11
			C105.2,291.24,105.33,290.71,105.33,290.37z M109.3,370.03c-0.83-0.66-1.9-1.33-3.23-1.99c-1.33-0.66-2.48-1.16-3.47-1.49v2.98
			c0.33,0,0.91,0.08,1.74,0.25C105.16,369.94,106.81,370.03,109.3,370.03z M107.56,273.5l-0.5-0.74l-3.47,3.47l0.74,0.5
			L107.56,273.5z M130.39,263.08c-1.65,0.99-3.44,2.11-5.33,3.35c-1.9,1.24-3.27,2.36-4.09,3.35c1.82-0.99,3.64-1.99,5.46-2.98
			C128.24,265.81,129.56,264.57,130.39,263.08z M131.88,362.58c0-0.33-0.08-0.58-0.25-0.74l-0.25-0.25
			c-0.99,0.33-1.99,0.83-2.98,1.49c-0.99,0.66-1.98,1.33-2.98,1.99c0.99-0.33,2.11-0.74,3.35-1.24
			C130.02,363.33,131.05,362.92,131.88,362.58z M147.76,251.41h-6.45c-0.83-0.16-1.78,0.09-2.85,0.74c-1.08,0.66-2.11,1.33-3.1,1.99
			c1.82-0.33,3.89-0.7,6.2-1.12C143.87,252.62,145.94,252.08,147.76,251.41z M137.83,258.61l-0.25-0.74l-1.49,0.74v0.74
			L137.83,258.61z M173.07,283.42c-0.83,1.33-2.03,2.77-3.6,4.34c-1.57,1.57-2.77,3.1-3.6,4.59c-0.83,1.66-1.95,3.23-3.35,4.72
			c-1.41,1.49-2.98,2.94-4.72,4.34c-1.74,1.41-3.39,2.69-4.96,3.85c-1.57,1.16-2.85,2.15-3.85,2.98c2.48-0.99,5-2.4,7.57-4.22
			c2.56-1.82,4.96-3.8,7.2-5.96c2.23-2.15,4.18-4.51,5.83-7.07C171.25,288.43,172.41,285.91,173.07,283.42z M153.22,256.13
			c0.66-0.66,0.66-1.49,0-2.48c-0.33,0-0.71,0.12-1.12,0.37c-0.41,0.25-0.79,0.37-1.12,0.37c0,0.33,0.29,0.71,0.87,1.12
			C152.43,255.92,152.88,256.13,153.22,256.13z M166.62,262.58l-2.73-3.47l-0.74,0.5l2.73,3.47L166.62,262.58z M170.09,256.13
			c-0.33-1.49-1.33-2.69-2.98-3.6c-1.65-0.91-2.65-1.53-2.98-1.86c0.66,0.66,1.61,1.53,2.85,2.61
			C168.23,254.35,169.26,255.3,170.09,256.13z M169.84,261.09v-1.74h-1.24v1.74H169.84z M177.29,272.26
			c-0.5-2.31-0.79-4.8-0.87-7.44c-0.09-2.64-1.28-4.63-3.6-5.96c1.82,2.81,2.94,5.33,3.35,7.57
			C176.58,268.66,176.96,270.61,177.29,272.26z"/>
		<path class="st0" d="M269.85,342.73c0,1.82-1.2,4.01-3.6,6.58c-2.4,2.57-5.09,5.01-8.06,7.32c-2.98,2.32-5.83,4.34-8.56,6.08
			c-2.73,1.74-4.51,2.69-5.33,2.85c-2.48,0.83-4.51,1.45-6.08,1.86c-1.57,0.41-2.94,0.66-4.1,0.74c-1.16,0.08-2.19,0.12-3.1,0.12
			c-0.91,0-1.95,0-3.1,0c-1.33,0-2.77-0.04-4.34-0.12c-1.57-0.09-3.1-0.46-4.59-1.12c-1.49-0.66-2.73-1.57-3.72-2.73
			c-0.99-1.15-1.49-2.89-1.49-5.21c0-1.15,0.5-3.06,1.49-5.71c0.99-2.64,2.11-5.34,3.35-8.07c1.24-2.73,2.44-5.17,3.6-7.32
			c1.15-2.15,1.82-3.39,1.99-3.72c1.65-2.48,2.93-4.75,3.85-6.82c0.91-2.07,2.02-4.42,3.35-7.07c-1.82-0.33-3.39-0.37-4.71-0.12
			c-1.33,0.25-2.4,0.37-3.23,0.37c-0.5,0-1.37-0.25-2.61-0.74c-1.24-0.5-2.03-0.5-2.36,0c-2.82,5.79-5.17,10.51-7.07,14.14
			c-1.9,3.64-4.18,7.03-6.83,10.17c-2.65,3.14-6.16,6.41-10.55,9.8c-4.39,3.39-10.55,7.57-18.49,12.53c-0.66,0.33-1.2,0.7-1.61,1.12
			c-0.41,0.41-1.03,0.62-1.86,0.62c-1.32,0-2.48-0.46-3.47-1.36c-0.99-0.91-1.99-1.78-2.98-2.61c0-1.15,0.33-1.82,0.99-1.99
			c6.12-3.47,11.29-7.07,15.51-10.79c4.22-3.72,7.82-7.57,10.79-11.54c2.98-3.97,5.67-8.15,8.07-12.53
			c2.4-4.38,4.84-9.06,7.32-14.02c-0.83-0.66-1.82-1.86-2.98-3.6c-1.16-1.74-2.32-3.1-3.47-4.09c-0.5-0.66-0.74-1.9-0.74-3.72
			c0-1.65,0.21-3.35,0.62-5.09c0.41-1.74,1.15-3.35,2.23-4.84c1.07-1.49,2.48-2.73,4.22-3.72c1.74-0.99,3.93-1.49,6.58-1.49
			c0.66,0,1.74,0.09,3.23,0.25c1.49,0.17,2.93,0.54,4.34,1.12c1.4,0.58,2.64,1.36,3.72,2.36c1.07,0.99,1.61,2.23,1.61,3.72
			c0,0.83-0.33,2.28-0.99,4.34c-0.66,2.07-1.41,3.93-2.23,5.58c0.83,0.99,2.36,1.49,4.59,1.49s4.01,0,5.33,0h9.18
			c0.66,0,1.82-0.25,3.47-0.74c1.65-0.5,3.27-1.07,4.84-1.74c1.57-0.66,3.02-1.36,4.34-2.11c1.32-0.74,2.15-1.28,2.48-1.61
			c0.66,0.5,1.4,0.74,2.23,0.74c0,0.33-0.09,0.79-0.25,1.36c-0.17,0.58-0.33,1.04-0.5,1.36c-1.82,1.82-3.31,3.93-4.47,6.33
			c-1.16,2.4-2.4,4.59-3.72,6.58c-0.33,0.5-0.42,0.62-0.25,0.37c0.16-0.25,0.33-0.5,0.5-0.74c0.16-0.25,0.29-0.41,0.37-0.5
			c0.08-0.08-0.12,0.21-0.62,0.87c-1.49,2.81-3.85,7.03-7.07,12.66c-3.23,5.63-6.66,11.17-10.3,16.63c-0.99,1.49-2.03,3.56-3.1,6.2
			c-1.08,2.65-1.61,4.38-1.61,5.21c0,1.66,0.41,2.73,1.24,3.23c0.83,0.5,1.57,0.74,2.23,0.74c0.66,0,1.53-0.16,2.61-0.5
			c1.07-0.33,2.11-0.66,3.1-0.99c3.8-1.49,6.86-2.89,9.18-4.22c2.31-1.32,4.55-2.81,6.7-4.47c1.82-1.32,3.72-3.1,5.71-5.34
			c1.99-2.23,4.13-4.18,6.45-5.83c0.49,0.5,1.15,0.74,1.98,0.74c0,0.33,0.12,0.66,0.37,0.99
			C269.73,341.33,269.85,341.91,269.85,342.73z M203.1,305.01l-0.5-3.47h-1.24l0.74,3.47H203.1z M211.53,313.45
			c-1.49,2.81-3.02,5.75-4.59,8.81c-1.57,3.06-3.02,6-4.34,8.81c2.31-2.81,4.13-5.75,5.46-8.81
			C209.38,319.2,210.54,316.27,211.53,313.45z M208.8,306.25l-2.48-0.74v0.99l1.99,0.74L208.8,306.25z M217.99,296.83
			c0-1.82-0.46-2.98-1.37-3.47c-0.91-0.5-1.78-0.74-2.6-0.74c-2.48,0-4.22,0.37-5.21,1.12c-0.99,0.74-1.49,2.52-1.49,5.34
			c0,1.66,0.33,3.06,0.99,4.22c0.33,0,0.41,0.09,0.25,0.25c-0.17,0.17,0.16,0.25,0.99,0.25c0.83,0,1.74-0.08,2.73-0.25
			c0.99-0.16,1.82-0.33,2.48-0.5c0.99-0.83,1.78-1.9,2.36-3.23C217.7,298.48,217.99,297.49,217.99,296.83z M223.94,293.1
			c-0.17-0.16-0.25-0.33-0.25-0.5c-0.33,0-0.37,0.29-0.12,0.87c0.25,0.58,0.54,0.87,0.87,0.87
			C224.44,293.85,224.27,293.44,223.94,293.1z M227.17,295.58v-2.23h-0.99v2.23H227.17z M234.36,307.99v-1.24h-5.46v1.24H234.36z
			 M259.18,350.92l-1.49,1.74l-0.5-0.74l1.49-1.49L259.18,350.92z"/>
		<path class="st0" d="M350,329.33c-1.49,1.82-3.47,3.64-5.95,5.46c-2.48,1.82-4.96,3.14-7.44,3.97c-2.15,0.83-4.59,1.28-7.32,1.36
			c-2.73,0.09-5.5,0.21-8.31,0.37c-1.66,2.48-4.09,5.34-7.32,8.56s-6.74,6.33-10.55,9.31c-3.81,2.98-7.61,5.46-11.42,7.44
			c-3.81,1.99-7.12,2.98-9.93,2.98c-2.15,0-3.72-0.17-4.72-0.5c-0.99-0.33-1.95-0.79-2.85-1.36c-0.91-0.58-2.07-1.32-3.47-2.23
			c-1.41-0.91-3.44-1.94-6.08-3.1c-0.5-0.99-0.87-2.48-1.12-4.47c-0.25-1.99-0.37-3.39-0.37-4.22c0-2.31,0.2-4.88,0.62-7.69
			c0.41-2.81,1.28-5.46,2.61-7.94c0.83-1.49,1.94-3.31,3.35-5.46c1.4-2.15,2.85-4.13,4.34-5.96c0.49-0.66,1.61-1.9,3.35-3.72
			c1.74-1.82,3.72-3.93,5.96-6.33c2.23-2.4,4.63-4.84,7.2-7.32c2.56-2.48,4.96-4.8,7.2-6.95c2.23-2.15,4.22-3.93,5.96-5.34
			c1.74-1.4,2.94-2.11,3.6-2.11c0.83,0,1.69,0.87,2.6,2.61c0.91,1.74,1.78,2.61,2.6,2.61c0.83,0,1.28-0.12,1.37-0.37
			c0.08-0.25,0.54-0.37,1.36-0.37c0.66,0,1.32,0.41,1.99,1.24c0.66,0.83,1.49,1.41,2.48,1.74c5.46,2.65,8.85,5.09,10.17,7.32
			c1.32,2.23,1.99,4.84,1.99,7.82c0,4.14-1.66,9.02-4.96,14.64v1.49c0.5,0.33,1.03,0.5,1.61,0.5c0.58,0,1.28,0,2.11,0
			c2.64,0,5.17-0.66,7.57-1.99c2.4-1.32,5-2.98,7.82-4.96c0.33,0,0.74,0.66,1.24,1.99c0.33-0.33,0.78-0.7,1.36-1.12
			c0.58-0.41,1.03-0.62,1.36-0.62V329.33z M273.57,334.05c-0.83,1.49-1.66,3.19-2.48,5.09c-0.83,1.9-1.66,3.52-2.48,4.84
			c1.65-1.32,2.77-2.93,3.35-4.84C272.53,337.23,273.07,335.54,273.57,334.05z M272.82,360.35c0.5-0.83,0.33-1.78-0.5-2.85
			c-0.83-1.07-1.57-1.78-2.23-2.11c0,0.66,0.33,1.53,0.99,2.6C271.74,359.07,272.33,359.85,272.82,360.35z M277.29,343.73
			l-0.99-0.25l-0.74,1.49l0.74,0.5L277.29,343.73z M308.56,337.52c-2.98-1.32-5.55-3.14-7.69-5.46c-2.15-2.31-4.3-4.55-6.45-6.7
			c-0.33,0.17-1.41,1.49-3.23,3.97c-1.82,2.48-3.76,5.25-5.83,8.31c-2.07,3.06-3.97,6.08-5.71,9.06c-1.74,2.98-2.61,5.05-2.61,6.2
			v1.99c0.5,0.33,1.24,0.66,2.23,0.99c0.99,0.33,1.9,0.5,2.73,0.5c1.99,0,4.22-0.5,6.7-1.49c2.48-0.99,4.96-2.36,7.44-4.09
			c2.48-1.74,4.8-3.76,6.95-6.08C305.24,342.4,307.07,340,308.56,337.52z M283.49,364.07c-0.83-0.16-1.86-0.5-3.1-0.99
			c-1.24-0.5-2.36-0.91-3.35-1.24c0,0.83,0.5,1.57,1.49,2.23H283.49z M284.49,328.34c-0.66,0.66-1.33,1.53-1.99,2.61
			c-0.66,1.08-1.16,2.11-1.49,3.1c0.66-1.16,1.32-2.23,1.99-3.23C283.66,329.83,284.15,329,284.49,328.34z M290.44,324.87l-0.99-0.5
			l-0.74,1.74l0.99,0.25L290.44,324.87z M294.41,318.17c-0.83,0.99-1.61,2.07-2.36,3.23c-0.74,1.16-1.28,2.15-1.61,2.98
			c0.83-0.83,1.61-1.82,2.36-2.98C293.54,320.24,294.08,319.16,294.41,318.17z M302.85,311.96c-1.33,0.83-2.57,1.24-3.72,1.24v2.48
			L302.85,311.96z M301.11,327.84l-0.99-0.99l-0.5,0.74l0.74,0.74L301.11,327.84z M307.81,300.3c0-0.83-0.5-1.57-1.49-2.23
			c-1.49,0.66-2.23,1.41-2.23,2.23c0.66,0.33,1.36,0.5,2.11,0.5S307.48,300.63,307.81,300.3z M309.05,307
			c-0.33-0.33-0.5-0.66-0.5-0.99c-0.17-0.16-0.25-0.33-0.25-0.5c-0.66,0.66-1.37,1.2-2.11,1.61c-0.74,0.42-1.36,0.54-1.86,0.37v3.72
			c0.83-0.66,1.74-1.36,2.73-2.11S308.72,307.66,309.05,307z M309.3,335.29l-4.47-2.23v0.99l3.97,1.99L309.3,335.29z M312.77,339.01
			c-1.33,1.33-2.6,2.77-3.85,4.34c-1.24,1.57-2.19,2.85-2.85,3.85c0.99-0.99,2.19-2.27,3.6-3.85
			C311.08,341.78,312.11,340.34,312.77,339.01z M317.24,317.17c0-0.83-0.12-1.78-0.37-2.85c-0.25-1.07-1.28-2.11-3.1-3.1
			c-0.99,0.99-2.44,1.95-4.34,2.85c-1.9,0.91-2.85,2.52-2.85,4.84c0,2.48,0.58,4.14,1.74,4.96c1.15,0.83,2.64,2.48,4.47,4.96
			c0-0.33-0.04-0.7-0.12-1.12c-0.09-0.41,0.04-0.62,0.37-0.62l0.74,0.74c0.16,0.17,0.25,0.33,0.25,0.5
			c0.66-1.82,1.37-3.93,2.11-6.33C316.87,319.62,317.24,318,317.24,317.17z M310.05,305.51c0.16-0.16,0.16-0.5,0-0.99l-0.74-0.74
			c0,0.66,0.08,1.08,0.25,1.24L310.05,305.51z M318.73,326.6h-0.74l-0.74,1.99l0.74,0.5L318.73,326.6z M323.44,330.82
			c-0.33,0-0.62,0.33-0.87,0.99c-0.25,0.66-0.21,0.99,0.12,0.99c0.33,0,0.62-0.33,0.87-0.99
			C323.82,331.16,323.77,330.82,323.44,330.82z M331.88,334.79v-0.99h-6.2v0.99H331.88z M331.14,338.51v-0.99h-2.23v0.99H331.14z
			 M338.33,337.27l-0.5-0.99l-2.73,1.49v0.74L338.33,337.27z"/>
		<path class="st0" d="M441.32,303.03c0,1.82-0.33,3.89-0.99,6.2c-0.66,2.32-1.49,4.68-2.48,7.07c-0.99,2.4-2.03,4.68-3.1,6.82
			c-1.08,2.15-2.03,3.97-2.85,5.46c-1.33,2.32-3.68,5.05-7.07,8.19c-3.39,3.14-6.41,6.29-9.06,9.43c-2.15,2.65-4.68,5.42-7.57,8.31
			c-2.9,2.9-5.87,5.58-8.93,8.06c-3.06,2.48-5.96,4.51-8.69,6.08c-2.73,1.57-5.01,2.36-6.82,2.36c-1.49,0-2.94-0.54-4.34-1.61
			c-1.41-1.08-2.73-2.36-3.97-3.85c-1.24-1.49-2.28-2.93-3.1-4.34c-0.83-1.4-1.33-2.52-1.49-3.35c-0.99,0.66-1.82,1.49-2.48,2.48
			c-0.66,0.99-1.66,1.99-2.98,2.98c-1.66,1.33-3.76,2.61-6.33,3.85c-2.57,1.24-4.51,1.86-5.83,1.86c-1.16,0-2.48-0.46-3.97-1.36
			c-1.49-0.91-2.9-1.99-4.22-3.23c-1.33-1.24-2.44-2.52-3.35-3.85c-0.91-1.32-1.36-2.4-1.36-3.23c0-5.46,1.36-11,4.09-16.63
			c2.73-5.62,5.79-10.92,9.18-15.88c3.39-4.96,6.45-9.47,9.18-13.52c2.73-4.05,4.09-7.23,4.09-9.55c0-0.83-0.17-1.74-0.5-2.73
			c-0.33-0.99-1.16-1.65-2.48-1.99v-2.23c0.66-0.33,1.32-0.66,1.99-0.99c0.66-0.33,1.4-0.5,2.23-0.5c0.83,0,2.31,0.42,4.47,1.24
			c2.15,0.83,3.64,1.24,4.47,1.24c0.83,0,1.24-0.08,1.24-0.25c0-0.16,0.41-0.25,1.24-0.25c0.83,0,1.9,0.29,3.23,0.87
			c1.32,0.58,2.48,1.2,3.47,1.86v1.99c0,0.66-0.5,1.45-1.49,2.36c-0.99,0.91-1.74,1.78-2.23,2.61c-0.99,1.82-2.32,4.3-3.97,7.44
			c-1.66,3.14-3.56,6.12-5.71,8.93c-0.66,0.83-1.82,2.36-3.47,4.59c-1.66,2.23-3.31,4.59-4.96,7.07c-1.66,2.48-3.1,4.88-4.34,7.2
			c-1.24,2.32-1.86,3.97-1.86,4.96v2.48c0.33,0.33,0.41,0.58,0.25,0.74c-0.17,0.17,0.16,0.25,0.99,0.25c1.49,0,3.51-1.32,6.08-3.97
			c2.56-2.64,5.37-5.99,8.44-10.05c3.06-4.05,6.24-8.39,9.55-13.03c3.31-4.63,6.53-8.97,9.68-13.03c3.14-4.05,6.08-7.4,8.81-10.05
			c2.73-2.64,5-3.97,6.82-3.97c0.83,0,1.99,0.42,3.47,1.24c1.49,0.83,2.89,1.49,4.22,1.99c0.16,3.31-0.74,6.58-2.73,9.8
			c-1.99,3.23-3.64,6.08-4.96,8.56c-0.17,0.33-1.36,1.9-3.6,4.71c-2.23,2.82-4.68,6-7.32,9.55c-2.65,3.56-5.05,7.03-7.2,10.42
			c-2.15,3.39-3.23,5.92-3.23,7.57c0,1.49,0.33,2.81,0.99,3.97h1.74c0.83,0,2.52-0.99,5.09-2.98c2.56-1.99,5.33-4.42,8.31-7.32
			c2.98-2.89,5.87-5.87,8.69-8.93c2.81-3.06,4.8-5.66,5.96-7.82c0.99-1.99,1.94-4.13,2.85-6.45c0.91-2.32,1.61-4.55,2.11-6.7
			c0.33-1.49,0.29-3.27-0.12-5.34c-0.42-2.07-0.29-4.01,0.37-5.83c0.83-1.82,1.82-3.85,2.98-6.08c1.15-2.23,3.31-3.35,6.45-3.35
			c1.65,0,2.98,0.5,3.97,1.49c1.32,1.33,2.4,3.1,3.23,5.34C440.9,300.67,441.32,302.2,441.32,303.03z M347.52,361.1
			c-0.83-0.99-1.37-2.19-1.61-3.6c-0.25-1.4-0.29-2.85-0.12-4.34c0.16-1.49,0.37-2.98,0.62-4.47s0.37-2.73,0.37-3.72
			c-0.66,1.66-1.28,3.6-1.86,5.83c-0.58,2.23-0.87,3.76-0.87,4.59c0,0.33,0.37,1.24,1.12,2.73
			C345.9,359.61,346.69,360.6,347.52,361.1z M363.15,328.34c-2.32,3.14-4.43,5.92-6.33,8.31c-1.9,2.4-2.85,5.17-2.85,8.31
			c0,0.83,0.08,1.61,0.25,2.36c0.16,0.74,0.41,1.36,0.74,1.86c0.33-3.8,1.45-7.57,3.35-11.29
			C360.21,334.17,361.82,330.99,363.15,328.34z M365.38,325.36l-0.99-0.25l-0.74,1.49l0.74,0.5L365.38,325.36z M370.1,319.41
			l-0.5-0.74l-1.49,1.49l0.5,0.74L370.1,319.41z M379.28,363.58c-0.66-0.99-1.28-2.02-1.86-3.1c-0.58-1.07-0.79-1.86-0.62-2.36
			c-0.33,0-0.66,0.33-0.99,0.99c-0.17,0.33-0.25,0.66-0.25,0.99c0.66,0.66,1.36,1.33,2.11,1.99
			C378.41,362.75,378.95,363.25,379.28,363.58z M380.52,300.3h-1.49c-0.5,0.33-0.95,0.87-1.37,1.61c-0.41,0.74-0.54,1.2-0.37,1.36
			c0.83-0.66,1.57-1.24,2.23-1.74C380.19,301.04,380.52,300.63,380.52,300.3z M384.74,367.3c0-0.33-0.04-0.74-0.12-1.24
			c-0.08-0.5-0.29-0.74-0.62-0.74c-0.33,0-0.37,0.25-0.12,0.74S384.4,366.97,384.74,367.3z M391.44,317.67
			c-1.49,1.82-2.82,3.64-3.97,5.46c-1.16,1.82-2.32,3.47-3.47,4.96c0.5-0.33,1.2-0.87,2.11-1.61c0.91-0.74,1.78-1.61,2.61-2.61
			c0.83-0.99,1.53-2.02,2.11-3.1C391.4,319.7,391.6,318.66,391.44,317.67z M389.45,338.02v-2.23h-0.99v2.23H389.45z M404.09,353.16
			c-2.81,2.15-5.63,4.34-8.44,6.58c-2.81,2.23-5.21,4.09-7.2,5.58c2.98-1.82,5.99-3.72,9.06-5.71
			C400.58,357.62,402.77,355.47,404.09,353.16z M390.94,328.84l-2.23,2.23C390.2,330.41,390.94,329.67,390.94,328.84z
			 M402.85,312.21c-2.32,2.81-4.39,5.63-6.2,8.44c-1.82,2.82-3.39,5.3-4.72,7.44c1.82-2.48,3.85-5.25,6.08-8.31
			C400.25,316.72,401.86,314.2,402.85,312.21z M395.9,353.16c-0.66,0.66-1.33,1.28-1.99,1.86c-0.66,0.58-1.08,1.12-1.24,1.61
			c0.83-0.33,1.49-0.83,1.99-1.49C395.16,354.48,395.57,353.82,395.9,353.16z M399.87,350.43l-0.5-0.74l-2.23,1.49l0.5,0.74
			L399.87,350.43z M412.28,299.8c-0.83-0.5-1.66-0.74-2.48-0.74c0,0.66-0.21,1.49-0.62,2.48c-0.42,0.99-0.62,1.82-0.62,2.48
			c0.66-0.66,1.45-1.36,2.36-2.11C411.83,301.17,412.28,300.47,412.28,299.8z M417.99,334.79l-0.74-0.5l-2.23,2.73l0.99,0.74
			L417.99,334.79z M425.68,318.41c-0.66,0.83-1.28,1.9-1.86,3.23c-0.58,1.33-0.95,2.65-1.12,3.97c1.15-0.83,1.86-2.07,2.11-3.72
			C425.06,320.24,425.35,319.08,425.68,318.41z M429.16,318.91c0.33-0.33,0.33-0.74,0-1.24l-0.49-0.5c0,0.66,0.08,1.08,0.25,1.24
			C428.91,318.58,428.99,318.75,429.16,318.91z M436.6,310.23c0.33-1.99,0.74-3.51,1.24-4.59c0.5-1.07,0.08-2.02-1.24-2.85
			c0,1.82,0.04,3.35,0.12,4.59C436.81,308.61,436.76,309.57,436.6,310.23z"/>
		<path class="st0" d="M516.51,334.3c0,0.83-0.46,1.78-1.37,2.85c-0.91,1.08-1.45,2.11-1.61,3.1c-0.5,4.47-2.69,8.48-6.58,12.04
			c-3.89,3.56-8.36,6.66-13.4,9.31c-5.05,2.65-10.14,4.68-15.26,6.08c-5.13,1.4-9.27,2.11-12.41,2.11c-1.99,0-3.89-0.71-5.71-2.11
			c-1.82-1.4-3.47-3.06-4.96-4.96c-1.49-1.9-2.77-3.8-3.85-5.71c-1.08-1.9-1.86-3.27-2.36-4.09c-0.33-0.5-0.42-1.16-0.25-1.99
			c0.16-0.83,0.25-1.65,0.25-2.48c0-3.97,1.28-8.89,3.85-14.76c2.56-5.87,5.87-11.54,9.93-17c4.05-5.46,8.69-10.09,13.9-13.9
			c5.21-3.8,10.55-5.71,16.01-5.71c1.49,0,3.31,0.21,5.46,0.62c2.15,0.41,4.13,1.12,5.96,2.11c1.82,0.99,3.23,2.4,4.22,4.22
			c0.99,1.82,1.07,4.22,0.25,7.2c0.33,0.5,0.7,0.99,1.12,1.49c0.41,0.5,0.62,1.08,0.62,1.74c0,1.49-0.99,3.23-2.98,5.21
			c-1.99,1.98-4.22,3.89-6.7,5.71c-2.48,1.82-4.84,3.39-7.07,4.72c-2.23,1.33-3.52,2.07-3.85,2.23c-1.33,0.66-2.98,1.57-4.96,2.73
			c-1.99,1.16-3.89,2.15-5.71,2.98c-1.16,0.5-2.52,1.12-4.09,1.86c-1.57,0.74-3.02,1.7-4.34,2.85c-1.16,0.83-1.74,1.78-1.74,2.85
			c0,1.08,0,2.19,0,3.35c0,0.5,0.04,1.33,0.12,2.48c0.08,1.16,0.29,2.36,0.62,3.6c0.33,1.24,0.91,2.36,1.74,3.35
			c0.83,0.99,1.9,1.49,3.23,1.49c3.31,0,7.11-1.15,11.42-3.47c4.3-2.32,8.39-5.05,12.28-8.19c3.88-3.14,7.28-6.2,10.17-9.18
			c2.89-2.98,4.59-5.13,5.09-6.45h2.23c0.33,0.33,0.54,0.5,0.62,0.5C516.46,333.06,516.51,333.47,516.51,334.3z M453.72,342.48
			c-1.16,0-1.74,0.58-1.74,1.74v4.96c0.99-0.33,1.69-1.2,2.11-2.61C454.51,345.18,454.38,343.81,453.72,342.48z M463.65,325.86
			c-0.66,0.83-1.41,2.03-2.23,3.6c-0.83,1.57-1.41,3.02-1.74,4.34L463.65,325.86z M465.14,349.68l-0.74-0.5l-0.74,1.74l0.74,0.25
			L465.14,349.68z M471.09,322.63c-2.65,1.82-4.18,4.34-4.59,7.57c-0.42,3.23-0.95,5.92-1.61,8.07c-0.33,0.33-0.58,0.58-0.74,0.74
			c-0.17,0.17-0.25,0.66-0.25,1.49v6.95c0.83-2.48,1.49-5,1.99-7.57c0.5-2.56,0.91-5.09,1.24-7.57c0.33-1.65,0.95-3.35,1.86-5.09
			C469.89,325.49,470.6,323.96,471.09,322.63z M467.37,366.8v-0.99h-1.74v0.99H467.37z M473.08,336.78c0-0.66-0.12-1.45-0.37-2.36
			c-0.25-0.91-0.37-1.69-0.37-2.36c-0.33,0.66-0.66,1.61-0.99,2.85c-0.33,1.24-0.5,2.28-0.5,3.1
			C471.67,337.19,472.42,336.78,473.08,336.78z M499.13,311.71c0-0.83-0.29-1.49-0.87-1.99c-0.58-0.5-1.03-0.74-1.37-0.74
			c-1.99,0.5-4.14,1.28-6.45,2.36c-2.32,1.08-4.59,2.44-6.83,4.09c-2.23,1.66-4.26,3.64-6.08,5.96c-1.82,2.32-3.14,4.96-3.97,7.94
			c1.65-0.33,3.35-0.62,5.09-0.87s3.1-0.62,4.1-1.12c0.5-0.16,1.65-0.87,3.47-2.11c1.82-1.24,3.68-2.69,5.58-4.34
			c1.9-1.65,3.6-3.35,5.09-5.09C498.39,314.07,499.13,312.71,499.13,311.71z M499.63,306.25c-0.66-0.66-1.41-1.32-2.23-1.99
			c-0.83-0.66-1.65-0.99-2.48-0.99c-0.83,0-1.36,0.21-1.61,0.62c-0.25,0.42-0.54,0.79-0.87,1.12c0.83,0,1.24,0.42,1.24,1.24H499.63z
			 M504.35,305.51l-2.23-2.23l-0.74,0.5l2.23,2.23L504.35,305.51z M504.84,308.98v-1.74h-0.99v1.74H504.84z"/>
		<path class="st0" d="M725.19,270.52c0,3.97-0.96,7.44-2.85,10.42c-1.9,2.98-4.39,5.71-7.44,8.19c-3.06,2.48-6.41,4.84-10.05,7.07
			c-3.64,2.23-7.2,4.59-10.67,7.07c0.83,1.82,1.86,3.64,3.1,5.46c1.24,1.82,2.19,3.64,2.85,5.46c0.83,1.82,1.4,3.89,1.74,6.2
			c0.33,2.32,0.5,4.22,0.5,5.71c0,0.83-0.21,2.48-0.62,4.96c-0.42,2.48-0.79,4.38-1.12,5.71c-1.33,4.96-2.81,9.64-4.47,14.02
			c-1.65,4.38-4.8,8.4-9.43,12.03c-1.82,1.33-4.01,2.61-6.58,3.85c-2.57,1.24-5.21,2.31-7.94,3.23c-2.73,0.91-5.46,1.65-8.19,2.23
			c-2.73,0.58-5.17,0.87-7.32,0.87c-1.82,0-4.26-0.47-7.32-1.41c-3.06-0.94-6.12-2.18-9.18-3.72c-3.06-1.54-5.79-3.3-8.19-5.29
			c-2.4-1.99-3.85-4.06-4.34-6.21c-0.17-0.83-0.71-1.74-1.61-2.73c-0.91-0.99-1.7-1.9-2.36-2.73c-3.31,1.33-6.7,2.81-10.17,4.47
			c-3.47,1.66-6.99,3.23-10.55,4.71c-3.56,1.49-7.11,2.73-10.67,3.72c-3.56,0.99-7.07,1.49-10.55,1.49c-2.32,0-4.8-0.41-7.44-1.24
			c-2.65-0.83-5.17-2.02-7.57-3.6c-2.4-1.57-4.38-3.51-5.96-5.83c-1.57-2.32-2.36-4.88-2.36-7.69c0-0.5,0.04-1.24,0.12-2.23
			c0.08-0.99,0.29-1.74,0.62-2.23c0.33-0.5,1.15-1.28,2.48-2.36c1.32-1.07,2.81-2.19,4.47-3.35c1.65-1.16,3.18-2.19,4.59-3.1
			c1.4-0.91,2.36-1.36,2.85-1.36h5.71c0.33,0.83,0.74,1.7,1.24,2.61c0.5,0.91,0.74,1.7,0.74,2.36c0,1.49-0.41,2.48-1.24,2.98
			c-1.33,1.33-3.02,2.61-5.09,3.85c-2.07,1.24-3.44,3.02-4.09,5.34c0,0.33,0.33,0.83,0.99,1.49c1.15,0.17,2.44,0.41,3.85,0.74
			c1.4,0.33,2.77,0.62,4.09,0.87c1.32,0.25,2.52,0.46,3.6,0.62c1.07,0.17,1.86,0.25,2.36,0.25c3.97,0,7.98-0.98,12.03-2.96
			c4.05-1.98,7.94-4.61,11.66-7.9c3.72-3.29,7.28-7.04,10.67-11.24c3.39-4.2,6.58-8.52,9.55-12.97c0.83-1.15,1.82-2.84,2.98-5.06
			c1.15-2.22,2.48-4.69,3.97-7.41c1.49-2.71,3.1-5.56,4.84-8.54s3.51-5.87,5.34-8.69c0.66-1.15,1.77-2.44,3.35-3.85
			c1.57-1.4,3.02-3.02,4.34-4.84c4.8-7.11,9.8-13.52,15.01-19.23c5.21-5.71,10.79-11.45,16.75-17.25c-0.5-1.49-1.24-2.48-2.23-2.98
			c-1.33-0.16-2.77-0.45-4.34-0.87c-1.57-0.41-2.77-0.62-3.6-0.62c-0.83,0-2.94,0.25-6.33,0.74c-3.39,0.5-6.5,0.91-9.31,1.24
			c-1.99,0.33-4.22,0.99-6.7,1.99c-2.48,0.99-4.96,1.9-7.44,2.73c-4.14,1.49-8.28,3.06-12.41,4.72c-4.14,1.66-8.06,3.6-11.79,5.83
			c-3.72,2.23-7.24,4.84-10.55,7.82c-3.31,2.98-6.12,6.54-8.44,10.67c-0.33,0.83-0.71,1.99-1.12,3.47
			c-0.41,1.49-0.79,3.06-1.12,4.71c-0.33,1.66-0.58,3.19-0.74,4.59c-0.17,1.41-0.25,2.36-0.25,2.85c0,0.33,0.04,1.12,0.12,2.36
			c0.08,1.24,0.33,2.52,0.74,3.85c0.41,1.33,0.95,2.48,1.61,3.47c0.66,0.99,1.65,1.49,2.98,1.49c3.14,0,5.5-1.12,7.07-3.35
			c1.57-2.23,3.1-4.59,4.59-7.07c0.16,0.5,0.04,1.12-0.37,1.86c-0.42,0.74-0.79,1.45-1.12,2.11l0.99,0.99
			c1.32-1.16,2.27-2.4,2.85-3.72c0.58-1.32,0.99-2.69,1.24-4.09c0.25-1.4,0.45-2.89,0.62-4.47c0.16-1.57,0.41-3.1,0.74-4.59
			c1.32,0.83,2.07,1.82,2.23,2.98c0.16,1.16,0.41,2.07,0.74,2.73c0.5,0.66,1.16,1.12,1.99,1.36c0.83,0.25,1.57,0.62,2.23,1.12
			c0.33,1.33,0.25,3.02-0.25,5.09c-0.5,2.07-1.33,4.01-2.48,5.83c-0.5,0.83-1.57,2.15-3.23,3.97c-1.65,1.82-3.44,3.68-5.33,5.58
			c-1.9,1.9-3.76,3.6-5.58,5.09c-1.82,1.49-3.14,2.23-3.97,2.23c-0.99,0-2.28-0.25-3.85-0.74c-1.57-0.5-3.23-1.16-4.96-1.99
			c-1.74-0.83-3.44-1.9-5.09-3.23c-1.66-1.32-2.98-2.89-3.97-4.72c0.16-0.66,0.16-1.24,0-1.74c-1.33-1.32-2.03-2.56-2.11-3.72
			c-0.09-1.16-0.12-1.99-0.12-2.48c0-0.33,0.04-1.03,0.12-2.11c0.08-1.07,0.25-2.31,0.5-3.72c0.25-1.4,0.54-2.81,0.87-4.22
			c0.33-1.4,0.74-2.52,1.24-3.35c0.66-1.49,1.53-3.35,2.61-5.58c1.07-2.23,2.36-4.59,3.85-7.07s3.18-4.92,5.09-7.32
			c1.9-2.4,4.01-4.51,6.33-6.33c1.49-1.32,3.18-3.1,5.09-5.34c1.9-2.23,3.93-4.09,6.08-5.58c2.32-1.49,5.5-3.31,9.55-5.46
			c4.05-2.15,7.9-3.56,11.54-4.22c0.83-0.16,1.74-0.45,2.73-0.87c0.99-0.41,1.99-0.78,2.98-1.12c1.99-0.5,4.34-0.99,7.07-1.49
			c2.73-0.5,5.33-0.91,7.82-1.24c2.48-0.33,4.67-0.62,6.58-0.87c1.9-0.25,3.02-0.37,3.35-0.37c0.33,0,1.2,0.04,2.6,0.12
			c1.4,0.09,2.98,0.21,4.72,0.37c1.74,0.17,3.51,0.37,5.34,0.62c1.82,0.25,3.39,0.54,4.72,0.87c3.31,0.83,6.53,1.95,9.68,3.35
			c3.14,1.41,5.96,3.02,8.44,4.84c0.99,0.66,2.48,2.23,4.47,4.72c1.99,2.48,4.01,5.3,6.08,8.44c2.07,3.14,3.85,6.25,5.34,9.31
			C724.45,266.02,725.19,268.54,725.19,270.52z M568.36,356.38c-0.66-0.83-1.37-1.45-2.11-1.86c-0.74-0.41-1.28-0.62-1.61-0.62
			c0.66,0.66,1.36,1.28,2.11,1.86C567.49,356.34,568.03,356.55,568.36,356.38z M569.6,345.96c-0.66,0-1.37,0.17-2.11,0.5
			c-0.74,0.33-1.12,0.66-1.12,0.99c0.33,0.33,0.74,0.5,1.24,0.5c0.16,0.17,0.33,0.25,0.5,0.25c0.33-0.33,0.58-0.7,0.74-1.12
			C569.02,346.66,569.27,346.29,569.6,345.96z M578.78,355.14c-0.66-0.16-1.49-0.33-2.48-0.5c-0.99-0.16-2.4-0.25-4.22-0.25
			c0.33,0.33,0.87,0.79,1.61,1.36c0.74,0.58,1.53,0.87,2.36,0.87C577.38,356.63,578.29,356.13,578.78,355.14z M589.95,357.37h-2.23
			c-2.32,1.35-4.51,2.06-6.58,2.14c-2.07,0.09-4.26,0.46-6.58,1.13c1.49,0.66,3.26,1.08,5.33,1.24c2.07,0.17,3.51,0.25,4.34,0.25
			c0.83,0,1.78-0.62,2.85-1.88C588.17,359.01,589.12,358.05,589.95,357.37z M577.54,337.52l-1.49-1.74c0,0.66,0.16,1.12,0.5,1.36
			C576.88,337.4,577.21,337.52,577.54,337.52z M595.91,290.62l-0.99-0.25l-0.74,1.74l0.74,0.25L595.91,290.62z M606.82,309.23h-3.23
			c0.33,0.33,0.74,0.71,1.24,1.12c0.5,0.42,0.91,0.62,1.24,0.62c0.16-0.16,0.25-0.37,0.25-0.62c0-0.25,0.08-0.45,0.25-0.62
			C606.58,309.57,606.66,309.4,606.82,309.23z M614.27,258.36c-1.66,0.17-3.39,0.95-5.21,2.36c-1.82,1.41-3.39,3.27-4.72,5.58
			c1.65-1.32,3.31-2.64,4.96-3.97C610.96,261.01,612.61,259.69,614.27,258.36z M619.73,338.51c0-0.5-0.17-0.91-0.5-1.24l-0.25-0.25
			c-0.99,0.83-2.11,1.95-3.35,3.35c-1.24,1.41-2.11,2.52-2.6,3.35c1.32-0.83,2.77-1.69,4.34-2.61
			C618.94,340.21,619.73,339.34,619.73,338.51z M628.41,245.46c-1.49,0.33-3.14,1.12-4.96,2.36c-1.82,1.24-3.23,2.36-4.22,3.35
			c1.65-0.66,3.27-1.57,4.84-2.73C625.64,247.28,627.09,246.29,628.41,245.46z M636.6,240.99c-0.83,0.33-1.86,0.79-3.1,1.36
			c-1.24,0.58-2.28,1.03-3.1,1.36h2.73c0.83,0.17,1.53-0.08,2.11-0.74C635.82,242.32,636.27,241.65,636.6,240.99z M687.97,324.87
			c0-1.15-0.5-2.61-1.49-4.34c-0.99-1.74-2.11-3.56-3.35-5.46c-1.24-1.9-2.48-3.68-3.72-5.34c-1.24-1.65-2.11-2.89-2.6-3.72
			c-3.47,0-7.07,0.42-10.79,1.24c-3.72,0.83-7.24,1.33-10.55,1.49c-1.33,2.15-2.73,4.34-4.22,6.58s-2.57,4.18-3.23,5.83
			c-0.83,1.49-2.07,3.47-3.72,5.96c-1.66,2.48-3.31,4.88-4.96,7.2c-1.66,2.32-3.14,4.3-4.47,5.96c-1.33,1.66-1.99,2.57-1.99,2.73
			c0,0.33,0.33,0.99,0.99,1.99c0.66,0.99,1.49,2.11,2.48,3.35c0.99,1.24,2.02,2.44,3.1,3.6c1.08,1.16,2.02,2.07,2.85,2.73
			c1.15,1.16,2.64,2.03,4.47,2.61c1.82,0.58,3.47,1.03,4.96,1.36c0.83,0.17,1.94,0.33,3.35,0.5c1.4,0.17,2.44,0.25,3.1,0.25
			c0.66,0,1.74-0.33,3.23-0.99c1.49-0.66,3.06-1.45,4.72-2.36c1.65-0.91,3.23-1.86,4.72-2.85c1.49-0.99,2.56-1.9,3.23-2.73
			c2.31-2.31,4.22-5.25,5.71-8.81c1.49-3.56,2.81-6.41,3.97-8.56c0.83-1.32,1.74-2.85,2.73-4.59S687.97,325.53,687.97,324.87z
			 M645.54,301.04c-0.33,0.83-0.99,1.45-1.99,1.86c-0.99,0.42-1.74,0.71-2.23,0.87c-1.16,2.15-2.28,4.47-3.35,6.95
			c-1.08,2.48-2.19,4.8-3.35,6.95C638.59,312.38,642.22,306.84,645.54,301.04z M641.81,321.89l-0.99-0.5l-5.71,7.69l0.74,0.5
			L641.81,321.89z M650.99,369.23c-1.99-1.01-4.22-1.93-6.7-2.77c-2.48-0.84-5.21-2.44-8.19-4.79c2.48,1.35,5,2.52,7.57,3.53
			c2.56,1.01,5,1.93,7.32,2.77V369.23z M643.55,319.16l-0.74-0.25l-0.99,1.74l0.99,0.25L643.55,319.16z M649.01,362.39
			c-0.33-0.33-1.16-0.74-2.48-1.24c-1.33-0.5-2.4-0.66-3.23-0.5c0.99,0.66,2.02,1.08,3.1,1.24
			C647.48,362.06,648.35,362.22,649.01,362.39z M653.97,303.77l-1.49-0.5c-0.33,0.33-0.91,0.95-1.74,1.86
			c-0.83,0.91-1.41,1.7-1.74,2.36c0.33,0.33,0.74,0.54,1.24,0.62c0.5,0.09,0.91,0.12,1.24,0.12c0-0.66,0.25-1.4,0.74-2.23
			C652.73,305.18,653.31,304.44,653.97,303.77z M656.95,287.4h-1.49c-0.33,0.33-0.71,0.95-1.12,1.86c-0.42,0.91-0.46,1.53-0.12,1.86
			c0.33-0.33,0.78-0.83,1.37-1.49C656.16,288.97,656.62,288.23,656.95,287.4z M678.29,270.03c-4.3,2.15-7.98,5.21-11.04,9.18
			c-3.06,3.97-5.83,7.86-8.31,11.66l1.49,1.49c1.16-1.32,2.4-3.02,3.72-5.09c1.32-2.07,2.48-3.76,3.47-5.09
			c1.49-1.99,3.31-4.09,5.46-6.33C675.23,273.62,676.96,271.68,678.29,270.03z M668.12,272.01c-1.49,0.99-3.19,2.48-5.09,4.47
			c-1.9,1.99-3.27,3.72-4.1,5.21c1.65-1.32,3.23-2.89,4.72-4.72C665.14,275.16,666.63,273.5,668.12,272.01z M666.88,300.55v-0.99
			h-6.7v0.99H666.88z M704.1,265.31c0-1.82-0.04-3.72-0.12-5.71c-0.09-1.99-0.71-3.89-1.86-5.71c-2.32,2.48-5.09,5.01-8.31,7.57
			c-3.23,2.57-6.58,5.42-10.05,8.56c-3.47,3.14-6.99,6.66-10.55,10.55c-3.56,3.89-6.82,8.4-9.8,13.52c0.83,0,1.9,0.21,3.23,0.62
			c1.32,0.41,2.4,0.62,3.23,0.62c0.33,0,1.15-0.12,2.48-0.37c1.32-0.25,2.85-0.54,4.59-0.87c1.74-0.33,3.56-0.74,5.46-1.24
			c1.9-0.5,3.51-0.91,4.84-1.24c1.15-0.33,2.4-0.91,3.72-1.74c1.32-0.83,2.4-1.57,3.22-2.23c1.99-1.49,3.76-3.26,5.34-5.33
			c1.57-2.07,2.6-3.76,3.1-5.09c0.33-0.66,0.58-1.57,0.74-2.73c0.16-1.16,0.33-2.36,0.5-3.6c0.16-1.24,0.25-2.4,0.25-3.47
			C704.1,266.35,704.1,265.64,704.1,265.31z M669.36,236.28l-2.23-0.99l-0.74,0.99H669.36z M670.6,358.16
			c-0.33,0-0.79,0.21-1.36,0.62c-0.58,0.42-0.87,0.95-0.87,1.61L670.6,358.16z M687.47,352.36v-1.7c-0.33-0.32-0.71-0.48-1.12-0.48
			c-0.42,0-0.79,0-1.12,0c-1.16,2.11-2.57,3.85-4.22,5.23c-1.66,1.38-3.47,2.96-5.46,4.74c1.82,0.33,3.43-0.31,4.84-1.94
			C681.8,356.58,684.16,354.64,687.47,352.36z M684.25,295.83c-0.33-0.33-0.95-0.45-1.86-0.37c-0.91,0.09-1.7,0.12-2.36,0.12
			c0,0.33,0.29,0.62,0.87,0.87c0.58,0.25,1.03,0.54,1.37,0.87c0.33-0.33,0.66-0.58,0.99-0.74
			C683.58,296.41,683.91,296.17,684.25,295.83z M684.99,305.51c-0.66,0-1.49,0.04-2.48,0.12c-0.99,0.09-1.66,0.29-1.99,0.62
			c0.83,0.5,1.53,0.66,2.11,0.5C683.21,306.59,684,306.17,684.99,305.51z M685.49,263.82c-0.66,0.33-1.45,0.83-2.36,1.49
			c-0.91,0.66-1.53,1.33-1.86,1.99c0.66-0.33,1.36-0.83,2.11-1.49C684.12,265.15,684.82,264.48,685.49,263.82z M689.46,262.08
			l-0.5-0.99l-1.49,0.74v0.99L689.46,262.08z M689.95,343.97l-0.25-0.99l-1.49,0.74v0.99L689.95,343.97z M691.94,340.5l-0.74-0.5
			l-1.49,1.49l0.74,0.5L691.94,340.5z M702.36,292.36c-1.82,0.99-3.76,1.95-5.83,2.85c-2.07,0.91-3.85,1.7-5.34,2.36
			c0.33,0.33,1.03,0.37,2.11,0.12c1.07-0.25,2.19-0.62,3.35-1.12c1.16-0.5,2.27-1.12,3.35-1.86
			C701.08,293.97,701.86,293.19,702.36,292.36z M697.89,253.4c-0.83,0.66-1.82,1.16-2.98,1.49c-1.16,0.33-2.15,0.66-2.98,0.99
			c0,0.33,0.12,0.83,0.37,1.49c0.25,0.66,0.37,1.16,0.37,1.49c0.83-0.99,1.74-1.94,2.73-2.85
			C696.41,255.1,697.23,254.23,697.89,253.4z M694.42,312.71l-0.74-1.74l-0.74,0.25l0.74,1.49H694.42z M696.9,290.37l-0.74-0.74
			l-1.99,2.23l0.5,0.5L696.9,290.37z M698.64,326.35c0-0.99-0.04-1.86-0.12-2.61c-0.09-0.74-0.29-1.53-0.62-2.36
			c-0.33-0.83-0.74-1.9-1.24-3.23c-0.5-1.32-1.24-3.14-2.23-5.46v2.23c-0.17,0.66-0.12,1.57,0.12,2.73
			c0.25,1.16,0.45,2.15,0.62,2.98c0.16,0.33,0.37,0.62,0.62,0.87c0.25,0.25,0.45,0.54,0.62,0.87c-0.17,1.66-0.17,3.27,0,4.84
			c0.16,1.57,0.5,2.94,0.99,4.09c0.5-0.83,0.83-1.65,0.99-2.48C698.55,328.01,698.64,327.18,698.64,326.35z M699.88,249.43
			c-0.33-0.66-0.83-1.24-1.49-1.74c-0.66-0.5-1.16-0.74-1.49-0.74l-1.99,2.48c1.32-0.33,2.4-0.41,3.23-0.25
			C698.97,249.35,699.55,249.43,699.88,249.43z M701.37,244.22l-1.74-1.74l-0.5,0.74l1.49,1.49L701.37,244.22z M701.12,287.4
			l-0.25-0.99l-1.49,0.99v0.74L701.12,287.4z M707.82,251.17v-0.99c-0.33-0.33-0.83-0.62-1.49-0.87c-0.66-0.25-1.33-0.37-1.99-0.37
			c0.33,0.66,0.74,1.36,1.24,2.11c0.5,0.74,0.74,1.28,0.74,1.61C706.99,251.66,707.49,251.17,707.82,251.17z M710.8,275.24v-3.97
			c-0.66,1.49-1.7,3.35-3.1,5.58c-1.41,2.23-2.53,4.26-3.35,6.08c1.32-0.5,2.77-1.69,4.34-3.6
			C710.26,277.43,710.96,276.07,710.8,275.24z M711.05,258.11c-0.33-0.66-0.74-1.32-1.24-1.99c-0.5-0.66-1.08-0.99-1.74-0.99
			c0.33,0.83,0.74,1.53,1.24,2.11C709.81,257.83,710.38,258.11,711.05,258.11z"/>
		<path class="st0" d="M791.98,352.04c-1.83,1.02-4.44,2.37-7.08,3.06c-0.18,0.09-0.32,0.2-0.52,0.29c-1.9,0.83-3.44,1.49-4.59,1.99
			c0.59-0.59,1.33-1.2,2.22-1.83c-1.94,0.04-3.74-0.5-5.06-2.1c-0.16-0.19-0.27-0.39-0.36-0.59c-0.26-0.21-0.43-0.52-0.52-0.94
			c-0.17-0.83-0.49-1.74-0.99-2.73c2.48-2.48,4.47-4.92,5.95-7.32c1.49-2.4,2.77-4.8,3.85-7.2c1.07-2.4,2.07-4.84,2.98-7.32
			c0.91-2.48,2.02-5.04,3.35-7.69c0.33-0.83,0.91-1.61,1.74-2.36c0.83-0.74,1.4-1.45,1.74-2.11c0.5-0.99,1.07-2.15,1.74-3.47
			c0.66-1.32,1.28-2.64,1.86-3.97c0.58-1.32,1.08-2.48,1.49-3.47c0.41-0.99,0.62-1.65,0.62-1.99c0-1.32-0.66-2.48-1.99-3.47
			c-1.33-0.99-2.9-1.49-4.72-1.49c-1.82,0-3.06,0.09-3.72,0.25c-0.66,0.33-1.12,0.71-1.36,1.12c-0.25,0.41-0.71,0.62-1.37,0.62
			c-1.66,0-3.68-0.83-6.08-2.48c-2.4-1.65-5.5-2.48-9.31-2.48c-0.33,0-1.16,0.17-2.48,0.5c-1.33,0.33-2.77,0.74-4.34,1.24
			c-1.57,0.5-3.1,0.99-4.59,1.49c-1.49,0.5-2.57,0.91-3.23,1.24c-2.48,1.49-4.8,3.1-6.95,4.84c-2.15,1.74-4.18,3.52-6.08,5.34
			c-1.9,1.82-3.56,3.52-4.96,5.09c-1.41,1.57-2.44,2.85-3.1,3.85c-1.82,2.48-3.39,5.42-4.72,8.81c-1.33,3.39-2.57,6.08-3.72,8.07
			c-1.66,2.81-2.85,4.88-3.6,6.2c-0.74,1.33-1.12,2.9-1.12,4.72c0,0.83,0.08,2.65,0.25,5.46c0.16,2.81,0.5,5.3,0.99,7.44
			c0.33,0.99,0.95,1.86,1.86,2.61c0.91,0.74,1.78,1.28,2.61,1.61c0.33,0.17,0.74,0.25,1.24,0.25c0.5,0,0.91,0.09,1.24,0.25
			c1.49,1.33,2.6,2.44,3.35,3.35c0.74,0.91,2.61,1.36,5.58,1.36c2.65,0,5.5-0.83,8.56-2.48c3.06-1.65,5.09-2.89,6.08-3.72
			c0.5,0.99,1.37,1.9,2.61,2.73c1.24,0.83,2.52,1.49,3.85,1.99c1.23,0.46,2.41,0.8,3.57,1.05c0.46-0.27,1.01-0.45,1.68-0.45
			c0.66,0,1.21,0.17,1.66,0.44c3.61-0.36,7.24-1.63,10.72-2.66c0.81-0.43,1.63-0.88,2.47-1.37c1.99-1.15,3.8-2.4,5.46-3.72
			c1.82-1.49,3.72-3.23,5.71-5.21c1.99-1.99,3.72-3.97,5.21-5.96c0.35-0.42,0.72-0.89,1.09-1.38
			C796.69,349.09,794.45,350.67,791.98,352.04z M794.55,303.77c0.58-0.66,1.03-1.15,1.36-1.49c0.5,0.83,0.74,1.66,0.74,2.48
			c-0.33,0-0.83,0.09-1.49,0.25c-0.66,0.17-1.16,0.25-1.49,0.25C793.68,304.93,793.97,304.44,794.55,303.77z M777.3,341.12
			c-0.33,0.58-0.66,0.87-0.99,0.87c0-1.15,0.33-1.74,0.99-1.74C777.63,340.25,777.63,340.54,777.3,341.12z M768.86,299.06h1.74v0.99
			h-1.74V299.06z M733.75,358.86c-0.58-0.5-0.87-0.91-0.87-1.24c0.33,0,0.78,0.25,1.36,0.74c0.58,0.5,0.87,1.08,0.87,1.74
			C734.78,359.77,734.33,359.36,733.75,358.86z M736.11,335.79c0-0.66,0.2-1.45,0.62-2.36c0.41-0.91,0.95-1.53,1.61-1.86
			c-0.33,0.66-0.71,1.36-1.12,2.11C736.81,334.42,736.44,335.13,736.11,335.79z M739.09,364.82c0.33,0,0.7-0.21,1.12-0.62
			c0.41-0.41,0.95-0.78,1.61-1.12l2.73,0.99C742.72,364.57,740.91,364.82,739.09,364.82z M748.76,355.14
			c-0.83,0.5-1.66,1.08-2.48,1.74h-2.23c0.83-0.83,1.82-1.45,2.98-1.86c1.16-0.41,2.15-0.78,2.98-1.12
			C750,354.23,749.59,354.64,748.76,355.14z M760.8,361.47c-0.41-0.58-0.79-1.28-1.12-2.11c0.16,0.33,0.58,0.62,1.24,0.87
			c0.66,0.25,0.99,0.87,0.99,1.86C761.58,362.26,761.21,362.05,760.8,361.47z M760.55,343.1c-2.9,3.06-5.33,5.09-7.32,6.08
			c-1.49,0.83-3.31,1.49-5.46,1.99c-2.15,0.5-4.38,1.16-6.7,1.99c-0.83-1.49-1.49-2.56-1.99-3.23c-0.49-0.66-0.83-1.12-0.99-1.36
			c-0.17-0.25-0.25-0.5-0.25-0.74v-1.86c0-2.64,1.15-5.96,3.47-9.93c2.32-3.97,5.04-7.86,8.19-11.66c3.14-3.8,6.41-7.15,9.8-10.05
			c3.39-2.89,6.24-4.67,8.56-5.34c0.66-0.16,1.45-0.58,2.36-1.24c0.91-0.66,1.78-0.99,2.61-0.99h4.47c0.33,0.83,0.66,1.78,0.99,2.85
			c0.33,1.08,0.5,2.03,0.5,2.85c0,2.32-0.95,5.38-2.85,9.18c-1.9,3.81-4.22,7.57-6.95,11.29
			C766.26,336.65,763.44,340.05,760.55,343.1z"/>
	</g>
	<g>
		<path class="st0" d="M880.21,341.14c-0.25-0.33-0.37-0.66-0.37-0.99c-0.83,0-1.49-0.25-1.98-0.74c-2.32,1.66-4.47,3.6-6.45,5.83
			c-1.99,2.23-3.89,4.01-5.71,5.34c-2.15,1.66-4.39,3.14-6.7,4.47c-2.32,1.33-5.38,2.73-9.18,4.22c-0.99,0.33-2.03,0.66-3.1,0.99
			c-1.08,0.33-1.95,0.5-2.61,0.5c-0.66,0-1.41-0.25-2.23-0.74c-0.83-0.5-1.24-1.57-1.24-3.23c0-0.83,0.53-2.56,1.61-5.21
			c1.07-2.64,2.11-4.72,3.1-6.2c3.64-5.46,7.07-11,10.3-16.63c3.23-5.62,5.58-9.84,7.07-12.66c-0.08,0.12-0.17,0.25-0.25,0.37
			c-0.17,0.25-0.09,0.12,0.25-0.37c1.32-1.99,2.56-4.18,3.72-6.58c1.15-2.4,2.64-4.51,4.47-6.33c0.16-0.33,0.33-0.78,0.5-1.36
			c0.16-0.58,0.25-1.03,0.25-1.36c-0.83,0-1.57-0.25-2.23-0.74c-0.33,0.33-1.16,0.87-2.48,1.61c-1.33,0.74-2.77,1.45-4.34,2.11
			c-1.57,0.66-3.19,1.24-4.84,1.74c-1.66,0.5-2.82,0.74-3.47,0.74h-14.52c-2.23,0-3.76-0.5-4.59-1.49c0.83-1.65,1.57-3.51,2.23-5.58
			c0.66-2.07,0.99-3.51,0.99-4.34c0-1.49-0.54-2.73-1.61-3.72c-1.08-0.99-2.32-1.78-3.72-2.36c-1.41-0.58-2.85-0.95-4.34-1.12
			c-1.49-0.16-2.57-0.25-3.23-0.25c-2.65,0-4.84,0.5-6.58,1.49c-1.74,0.99-3.14,2.23-4.22,3.72c-1.08,1.49-1.82,3.1-2.23,4.84
			c-0.42,1.74-0.62,3.44-0.62,5.09c0,1.82,0.25,3.06,0.74,3.72c1.16,0.99,2.31,2.36,3.47,4.09c1.15,1.74,2.15,2.94,2.98,3.6
			c-2.48,4.96-4.92,9.64-7.32,14.02c-0.42,0.76-0.87,1.5-1.31,2.25c0.04,0.5-0.06,1.02-0.28,1.47c-1.35,2.71-2.43,5.53-4.28,7.96
			c-0.2,0.27-0.41,0.5-0.64,0.68c-3.15,4.7-7.08,8.37-11.85,11.26c-0.17,0.15-0.32,0.31-0.49,0.46c-4.22,3.72-9.39,7.32-15.51,10.79
			c-0.66,0.17-0.99,0.83-0.99,1.99c0.34,0.29,0.69,0.61,1.03,0.9c1.27-0.39,2.52-0.76,3.75-1.07c6.92-1.74,13.81-3.85,20.01-7.44
			c1.32-0.94,2.52-1.84,3.62-2.69c4.38-3.39,7.9-6.66,10.55-9.8c2.64-3.14,4.92-6.53,6.83-10.17c1.9-3.64,4.26-8.35,7.07-14.14
			c0.33-0.5,1.12-0.5,2.36,0c1.24,0.5,2.11,0.74,2.61,0.74c0.83,0,1.9-0.12,3.23-0.37c1.32-0.25,2.89-0.21,4.71,0.12
			c-1.33,2.65-2.44,5.01-3.35,7.07c-0.91,2.07-2.19,4.34-3.85,6.82c-0.17,0.33-0.83,1.57-1.99,3.72c-1.16,2.15-2.36,4.59-3.6,7.32
			c-1.24,2.73-2.36,5.42-3.35,8.07c-0.99,2.65-1.49,4.55-1.49,5.71c0,2.32,0.5,4.06,1.49,5.21c0.99,1.16,2.23,2.07,3.72,2.73
			s3.02,1.03,4.59,1.12c1.57,0.08,3.02,0.12,4.34,0.12h3.1c0.91,0,1.94-0.04,3.1-0.12c1.16-0.09,2.52-0.33,4.1-0.74
			c1.57-0.41,3.6-1.03,6.08-1.86c0.83-0.16,2.61-1.12,5.33-2.85c2.73-1.74,5.58-3.76,8.56-6.08c2.98-2.32,5.66-4.75,8.06-7.32
			c2.4-2.56,3.6-4.75,3.6-6.58C880.59,342.05,880.46,341.47,880.21,341.14z M836.91,293.49h0.99v2.23h-0.99V293.49z M812.84,305.15
			l-0.74-3.47h1.24l0.5,3.47H812.84z M817.06,306.64v-0.99l2.48,0.74l-0.5,0.99L817.06,306.64z M818.8,322.4
			c-1.33,3.06-3.14,6-5.46,8.81c1.32-2.81,2.77-5.75,4.34-8.81c1.57-3.06,3.1-5.99,4.59-8.81
			C821.28,316.41,820.12,319.34,818.8,322.4z M827.85,299.94c-0.58,1.33-1.36,2.4-2.36,3.23c-0.66,0.17-1.49,0.33-2.48,0.5
			c-0.99,0.17-1.9,0.25-2.73,0.25c-0.83,0-1.16-0.08-0.99-0.25c0.16-0.16,0.08-0.25-0.25-0.25c-0.66-1.15-0.99-2.56-0.99-4.22
			c0-2.81,0.5-4.59,1.49-5.34c0.99-0.74,2.73-1.12,5.21-1.12c0.83,0,1.7,0.25,2.6,0.74c0.91,0.5,1.37,1.66,1.37,3.47
			C828.72,297.63,828.43,298.62,827.85,299.94z M834.31,293.62c-0.25-0.58-0.21-0.87,0.12-0.87c0,0.17,0.08,0.33,0.25,0.5
			c0.33,0.33,0.5,0.74,0.5,1.24C834.84,294.48,834.55,294.2,834.31,293.62z M839.64,308.13v-1.24h5.46v1.24H839.64z"/>
	</g>
</g>
<g>
	<path class="st0" d="M410.85,261.91c-2.74-0.25-5.45-0.89-8.13-1.91c-1.15-0.51-2.3-1.16-3.44-1.96c-1.15-0.8-2.07-1.74-2.77-2.82
		c-0.51-0.83-0.86-1.8-1.05-2.92c-0.19-1.12-0.24-2.25-0.14-3.4c0.1-1.15,0.35-2.25,0.76-3.3c0.42-1.05,0.94-1.96,1.58-2.73
		c0.7-0.83,1.67-1.39,2.92-1.67c1.24-0.29,2.38-0.27,3.4,0.05c0.77,0.26,1.48,0.69,2.15,1.29c0.67,0.61,1.18,1.32,1.53,2.15
		c0.35,0.83,0.54,1.67,0.57,2.54c0.03,0.86-0.18,1.67-0.62,2.44c-0.26,0.45-0.54,0.89-0.86,1.34c-0.32,0.45-0.59,0.91-0.81,1.39
		c-0.22,0.48-0.35,0.97-0.38,1.48c-0.03,0.51,0.11,1.02,0.43,1.53c0.44,0.7,1.04,1.28,1.77,1.72c0.73,0.45,1.53,0.78,2.39,1.01
		c0.86,0.22,1.74,0.37,2.63,0.43c0.89,0.06,1.72,0.06,2.49,0c2.61-0.25,5.2-0.76,7.75-1.53c2.55-0.77,4.94-1.88,7.18-3.35
		c2.17-1.47,4.21-3.16,6.12-5.07c1.91-1.91,3.68-3.95,5.31-6.12c1.63-2.17,3.14-4.42,4.54-6.75c1.4-2.33,2.74-4.64,4.02-6.94
		c0.89-1.53,1.71-3.09,2.44-4.69c0.73-1.59,1.55-3.16,2.44-4.69c1.28-2.42,2.69-4.78,4.26-7.08c1.56-2.3,3.11-4.56,4.64-6.79
		c1.47-2.23,3-4.4,4.59-6.51c1.59-2.11,3.32-4.11,5.17-6.03c1.79-1.85,3.67-3.56,5.65-5.12c1.98-1.56,4.08-2.95,6.32-4.16
		c0.89-0.51,1.8-0.92,2.73-1.24c0.92-0.32,1.83-0.64,2.73-0.96c0.25-0.06,0.75-0.22,1.48-0.48c0.73-0.25,1.44-0.43,2.11-0.53
		c0.67-0.1,1.21-0.03,1.63,0.19c0.41,0.22,0.43,0.75,0.05,1.58c-0.32,0.57-0.91,1.02-1.77,1.34c-0.86,0.32-1.55,0.67-2.06,1.05
		c-0.57,0.51-1.15,1.04-1.72,1.58c-0.57,0.54-1.12,1.07-1.63,1.58c-2.23,2.43-4.1,5.12-5.6,8.09s-2.98,5.88-4.45,8.76
		c-1.21,2.43-2.49,4.8-3.83,7.13c-1.34,2.33-2.65,4.67-3.92,7.03c-1.47,2.81-3,5.61-4.59,8.42c-1.6,2.81-3.29,5.54-5.07,8.18
		c-1.79,2.65-3.7,5.18-5.74,7.61c-2.04,2.43-4.31,4.66-6.79,6.7c-4.08,3.44-8.66,6.19-13.73,8.23c-5.07,2.04-10.26,3.32-15.55,3.83
		c-1.53,0.13-3.05,0.21-4.54,0.24C413.9,262.09,412.38,262.04,410.85,261.91z M428.08,228.42c-2.49-0.13-4.85-0.68-7.08-1.65
		c-2.23-0.97-3.99-2.46-5.26-4.46c-1.34-2.11-2.19-4.34-2.53-6.67c-0.35-2.33-0.37-4.69-0.05-7.08c0.32-2.39,0.91-4.74,1.77-7.03
		c0.86-2.3,1.87-4.43,3.02-6.41c1.91-3.19,4.15-6.15,6.7-8.9c2.55-2.74,5.34-5.23,8.37-7.46c3.03-2.23,6.22-4.19,9.57-5.88
		c3.35-1.69,6.78-3.08,10.29-4.16c2.04-0.64,4.18-1.16,6.41-1.58c2.23-0.41,4.47-0.65,6.7-0.72c4.46-0.13,9.03-0.01,13.68,0.33
		c4.66,0.35,9.15,1.23,13.49,2.63c2.23,0.7,4.46,1.23,6.7,1.58c2.23,0.35,4.47,0.69,6.7,1.01c1.66,0.26,3.32,0.43,4.98,0.53
		c1.66,0.1,3.32,0.05,4.98-0.14c1.59-0.19,3.22-0.54,4.88-1.05c0.19-0.06,0.48-0.19,0.86-0.38c0.38-0.19,0.8-0.37,1.24-0.53
		c0.44-0.16,0.86-0.25,1.24-0.29c0.38-0.03,0.64,0.05,0.76,0.24c0.32,0.45,0.4,0.96,0.24,1.53s-0.46,1.05-0.91,1.44
		c-3.57,2.81-7.53,4.61-11.86,5.41c-4.34,0.8-8.71,1.1-13.11,0.91c-1.85-0.13-3.68-0.33-5.5-0.62c-1.82-0.29-3.62-0.65-5.41-1.1
		c-3.06-0.7-6.12-1.39-9.19-2.06c-3.06-0.67-6.12-1.35-9.19-2.06c-1.34-0.32-2.71-0.51-4.12-0.57c-1.4-0.06-2.81-0.16-4.21-0.29
		c-1.91-0.13-3.8-0.13-5.65,0c-1.85,0.13-3.7,0.48-5.55,1.05c-3.19,0.96-6.21,2.28-9.04,3.97c-2.84,1.69-5.41,3.7-7.7,6.03
		c-2.3,2.33-4.27,4.91-5.93,7.75c-1.66,2.84-2.9,5.85-3.73,9.04c-0.38,1.53-0.69,3.17-0.91,4.93c-0.22,1.76-0.24,3.48-0.05,5.17
		c0.19,1.69,0.65,3.27,1.39,4.74c0.73,1.47,1.87,2.71,3.4,3.73c0.96,0.64,2.07,1.12,3.35,1.44c1.28,0.32,2.49,0.48,3.64,0.48
		c1.47,0,2.95-0.13,4.45-0.38c1.5-0.25,2.92-0.73,4.26-1.44c0.38-0.19,0.86-0.48,1.44-0.86c0.57-0.38,1.16-0.77,1.77-1.15
		c0.61-0.38,1.21-0.7,1.82-0.96c0.61-0.25,1.13-0.32,1.58-0.19c0.38,0.13,0.59,0.33,0.62,0.62c0.03,0.29-0.02,0.61-0.14,0.96
		c-0.13,0.35-0.32,0.67-0.57,0.96c-0.25,0.29-0.48,0.53-0.67,0.72c-1.34,1.47-2.87,2.77-4.59,3.91c-1.72,1.13-3.54,2.09-5.45,2.86
		c-1.91,0.78-3.89,1.36-5.93,1.74C431.97,228.42,429.99,228.55,428.08,228.42z"/>
	<path class="st0" d="M491.63,262.29c-0.26-0.06-0.51-0.13-0.76-0.19c-0.26-0.06-0.54-0.16-0.86-0.29
		c-2.11-1.02-3.29-2.36-3.54-4.02c-0.26-1.66-0.03-3.43,0.67-5.31c0.7-1.88,1.63-3.72,2.77-5.5c1.15-1.79,2.07-3.32,2.78-4.59
		c1.47-2.49,3.03-4.9,4.69-7.22c1.66-2.33,3.19-4.77,4.59-7.32c0.44-0.89,0.96-1.93,1.53-3.11c0.57-1.18,0.64-2.31,0.19-3.4
		c-0.32-0.77-0.86-1.12-1.63-1.05c-0.76,0.06-1.6,0.3-2.49,0.72c-0.89,0.42-1.74,0.89-2.54,1.44c-0.8,0.54-1.36,0.94-1.67,1.2
		c-1.66,1.28-3.14,2.74-4.45,4.4c-1.31,1.66-2.6,3.35-3.88,5.07c-0.45,0.64-0.89,1.24-1.34,1.82c-0.45,0.57-0.86,1.21-1.24,1.91
		c-1.53,2.43-3.08,4.8-4.64,7.13c-1.56,2.33-3.08,4.71-4.55,7.13c-0.45,0.7-0.88,1.39-1.29,2.06c-0.42,0.67-0.81,1.36-1.2,2.06
		c-0.51,0.89-0.93,1.8-1.24,2.73c-0.32,0.93-0.8,1.8-1.43,2.63c-0.13,0.13-0.27,0.27-0.43,0.43c-0.16,0.16-0.3,0.3-0.43,0.43
		c-0.13,0.06-0.19,0.11-0.19,0.14c0,0.03-0.06,0.08-0.19,0.14c-0.32,0.13-0.67,0.22-1.05,0.29c-0.38,0.06-0.73,0.13-1.05,0.19
		c-0.96,0.13-1.91,0.21-2.87,0.24c-0.96,0.03-1.92,0.01-2.87-0.05c-0.76,0-1.53-0.1-2.3-0.29c-0.32-0.13-0.49-0.51-0.53-1.15
		c-0.03-0.64,0.11-1.21,0.43-1.72c0.64-1.15,1.26-2.3,1.87-3.44c0.61-1.15,1.26-2.26,1.96-3.35c2.17-3.44,4.32-6.89,6.46-10.33
		c2.14-3.44,4.26-6.92,6.36-10.43c0.64-1.02,1.24-2.02,1.82-3.01c0.57-0.99,1.18-2.02,1.82-3.11c1.28-2.04,2.54-4.11,3.78-6.22
		s2.5-4.24,3.78-6.41c1.98-3.38,3.97-6.71,5.98-10c2.01-3.28,4-6.59,5.98-9.9c1.21-1.91,2.23-3.79,3.06-5.65
		c0.32-0.64,0.57-1.26,0.77-1.87c0.19-0.61,0.35-1.23,0.48-1.87c0.13-0.7,0.3-1.13,0.53-1.29c0.22-0.16,0.88-0.24,1.96-0.24
		c0.38,0,0.88-0.01,1.48-0.05c0.6-0.03,1.16-0.08,1.67-0.14c1.47-0.19,2.63-0.33,3.49-0.43c0.86-0.1,1.52-0.14,1.96-0.14
		c0.45,0,0.73,0.06,0.86,0.19c0.13,0.13,0.22,0.29,0.29,0.48c0.38,1.28,0.29,2.54-0.29,3.78c-0.57,1.24-1.12,2.41-1.63,3.49
		c-0.96,1.91-2.01,3.73-3.16,5.45c-0.64,0.89-1.21,1.83-1.72,2.82c-0.51,0.99-1.05,1.93-1.63,2.82c-1.28,1.98-2.52,3.91-3.73,5.79
		c-1.21,1.88-2.42,3.84-3.63,5.88c-0.38,0.51-0.72,1.05-1.01,1.63c-0.29,0.57-0.59,1.15-0.91,1.72c-1.09,1.53-2.14,3.22-3.16,5.07
		c-0.13,0.13-0.19,0.26-0.19,0.38c0.19-0.13,0.35-0.25,0.48-0.38c0.13-0.13,0.25-0.25,0.38-0.38c0.25-0.13,0.48-0.27,0.67-0.43
		c0.19-0.16,0.38-0.3,0.57-0.43c1.02-0.77,2.09-1.5,3.2-2.2c1.12-0.7,2.25-1.28,3.4-1.72c0.7-0.32,1.45-0.53,2.25-0.62
		c0.8-0.1,1.58-0.21,2.34-0.33c1.08-0.13,2.2-0.1,3.35,0.1c1.15,0.19,2.1,0.7,2.87,1.53c1.21,1.34,1.85,2.79,1.91,4.35
		c0.06,1.56-0.18,3.14-0.72,4.74c-0.54,1.6-1.26,3.14-2.15,4.64c-0.89,1.5-1.66,2.86-2.3,4.07c-0.89,1.47-1.77,2.89-2.63,4.26
		c-0.86,1.37-1.74,2.79-2.63,4.26c-0.7,1.09-1.42,2.15-2.15,3.21c-0.74,1.05-1.45,2.12-2.15,3.21c-0.64,0.96-1.23,2.06-1.77,3.3
		c-0.54,1.24-0.75,2.44-0.62,3.59c0.89,0.32,1.77,0.27,2.63-0.14c0.86-0.41,1.64-0.88,2.34-1.39c0.7-0.51,1.43-1.05,2.2-1.63
		c0.76-0.57,1.5-1.15,2.2-1.72c2.87-2.55,5.55-5.42,8.04-8.61c0.76-0.96,1.51-1.93,2.25-2.92c0.73-0.99,1.45-2.02,2.15-3.11
		c0.32-0.38,0.65-0.88,1.01-1.48c0.35-0.61,0.72-1.04,1.1-1.29c0.38-0.25,0.73-0.3,1.05-0.14c0.32,0.16,0.54,0.42,0.67,0.77
		c0.13,0.35,0.17,0.7,0.14,1.05c-0.03,0.35-0.21,0.59-0.53,0.72c-1.02,1.6-1.88,2.89-2.58,3.88c-0.7,0.99-1.42,1.99-2.15,3.01
		c-0.73,1.02-1.29,1.76-1.67,2.2c-0.83,0.89-1.63,1.8-2.39,2.73c-0.77,0.93-1.56,1.83-2.39,2.73c-0.26,0.32-0.48,0.59-0.67,0.81
		c-0.19,0.22-0.42,0.46-0.67,0.72c-1.72,1.72-3.54,3.44-5.45,5.17c-1.91,1.72-3.99,3.16-6.22,4.31c-1.08,0.51-2.31,0.89-3.68,1.15
		C494.23,262.64,492.91,262.61,491.63,262.29z"/>
	<path class="st0" d="M528.68,262.2c-1.66-0.13-3.19-0.61-4.59-1.44c-1.85-1.08-3.09-2.46-3.73-4.11c-0.64-1.66-0.91-3.43-0.81-5.31
		c0.1-1.88,0.45-3.76,1.05-5.65c0.61-1.88,1.26-3.56,1.96-5.02c1.72-3.95,3.88-7.64,6.46-11.05c2.58-3.41,5.69-6.39,9.33-8.95
		c2.23-1.59,4.67-2.95,7.32-4.07c2.65-1.12,5.34-1.83,8.08-2.15c3-0.32,4.94,0.35,5.84,2.01c0.96,1.72,1.37,3.4,1.24,5.02
		c-0.13,1.63-0.62,3.16-1.48,4.59c-0.86,1.44-2.01,2.77-3.44,4.02c-1.44,1.24-2.97,2.39-4.59,3.45c-1.63,1.05-3.27,1.96-4.93,2.73
		c-1.66,0.77-3.13,1.4-4.4,1.91c-1.47,0.57-2.79,1.09-3.97,1.53c-1.18,0.45-2.22,0.99-3.11,1.63c-0.89,0.64-1.67,1.45-2.34,2.44
		c-0.67,0.99-1.23,2.28-1.67,3.88c-0.32,1.02-0.46,2.03-0.43,3.01c0.03,0.99,0.25,1.9,0.67,2.73c0.41,0.83,1.01,1.48,1.77,1.96
		c0.76,0.48,1.79,0.72,3.06,0.72c1.21,0,2.39-0.22,3.54-0.67c1.15-0.45,2.23-1.02,3.25-1.72c1.02-0.7,1.99-1.48,2.92-2.34
		c0.92-0.86,1.77-1.74,2.53-2.63c1.85-2.04,3.65-4.15,5.41-6.32c1.75-2.17,3.4-4.37,4.93-6.6c0.13-0.19,0.37-0.62,0.72-1.29
		c0.35-0.67,0.72-1.28,1.1-1.82c0.38-0.54,0.76-0.86,1.15-0.96c0.38-0.1,0.67,0.3,0.86,1.2c0.25,1.09-0.02,2.19-0.81,3.3
		c-0.8,1.12-1.52,2.06-2.15,2.82c-1.66,2.04-3.27,4.15-4.83,6.32c-1.56,2.17-3.21,4.24-4.93,6.22c-1.72,1.98-3.62,3.8-5.69,5.45
		c-2.07,1.66-4.39,3-6.94,4.02c-1.34,0.51-2.7,0.88-4.07,1.1C531.57,262.37,530.15,262.39,528.68,262.2z M536.72,236.94
		c0.51-0.13,1.07-0.35,1.67-0.67c0.61-0.32,0.97-0.51,1.1-0.57c1.85-1.08,3.59-2.39,5.22-3.92c1.63-1.53,3.08-3.12,4.35-4.78
		c0.77-0.96,1.5-2.04,2.2-3.25c0.7-1.21,1.08-2.46,1.15-3.73c0.06-0.51-0.08-1-0.43-1.48c-0.35-0.48-0.81-0.65-1.39-0.53
		c-0.76,0.19-1.53,0.65-2.3,1.39c-0.77,0.73-1.4,1.36-1.91,1.87c-0.38,0.45-0.77,0.88-1.15,1.29c-0.38,0.42-0.73,0.81-1.05,1.2
		c-1.02,1.28-2.01,2.54-2.97,3.78c-0.96,1.24-1.88,2.54-2.78,3.88c-0.13,0.19-0.4,0.61-0.81,1.24c-0.42,0.64-0.8,1.31-1.15,2.01
		c-0.35,0.7-0.56,1.29-0.62,1.77C535.8,236.89,536.08,237.06,536.72,236.94z"/>
</g>
</svg>
