<?xml version="1.0" encoding="utf-8"?>
<!-- Generator: Adobe Illustrator 24.1.3, SVG Export Plug-In . SVG Version: 6.00 Build 0)  -->
<svg version="1.1" id="Layer_1" xmlns="http://www.w3.org/2000/svg" xmlns:xlink="http://www.w3.org/1999/xlink" x="0px" y="0px"
	 viewBox="0 0 447 403" style="enable-background:new 0 0 447 403;" xml:space="preserve">
<style type="text/css">
	.st0{fill:#FFFFFF;}
</style>
<path class="st0" d="M233.27,236.11c-19.75,20.43-39.11,40.47-58.49,60.49c-4.66,4.81-9.02,10.02-14.2,14.19
	c-3.18,2.56-7.58,4.64-11.58,4.94c-9.45,0.72-15.45-8.15-11.76-16.91c1.36-3.23,3.56-6.39,6.12-8.78
	c24.35-22.73,48.87-45.27,73.32-67.9c4.63-4.29,8.81-9.14,13.75-13.02c12.12-9.5,15.13-22.44,14.66-36.76
	c-0.26-8.1,2-14.95,8.2-20.35c4.64-4.04,9.25-8.11,13.85-12.19c19.23-17.05,38.43-34.14,57.71-51.13c1.73-1.52,3.85-3.23,5.97-3.5
	c2.12-0.27,5.37,0.52,6.41,2.03c0.92,1.32,0.26,5.05-1.06,6.41c-14.53,14.91-29.31,29.57-44.04,44.29
	c-8.32,8.32-16.68,16.61-24.97,24.95c-1.14,1.14-2.74,2.44-2.89,3.8c-0.23,2.09-0.06,4.91,1.19,6.27c1,1.09,4.04,1.03,5.85,0.46
	c1.74-0.55,3.16-2.32,4.56-3.71c21.79-21.75,43.54-43.52,65.31-65.29c0.77-0.77,1.55-1.52,2.32-2.29c3.05-3.07,6.5-3.58,9.55-0.48
	c3.1,3.15,2.28,6.53-0.74,9.54c-8.98,8.94-17.92,17.93-26.89,26.88c-13.71,13.69-27.43,27.37-41.14,41.05
	c-0.26,0.26-0.51,0.51-0.76,0.77c-2.83,2.92-5.43,6.5-1.64,9.78c3.46,2.99,6.75,0.61,9.76-2.44c17.8-18.02,35.78-35.86,53.69-53.76
	c4.99-4.99,10.04-9.93,14.96-14.99c2.4-2.47,5.4-3.33,7.56-0.84c1.38,1.59,1.62,4.91,1.13,7.19c-0.45,2.1-2.4,3.97-3.95,5.72
	c-20.74,23.46-41.69,46.73-62.21,70.38c-6.61,7.62-15,8.94-23.93,8.76c-8.19-0.17-15.86,1.14-23.06,4.97
	c-1.85,0.98-3.49,2.35-5,3.39c5.37,5.68,10.18,11.27,15.51,16.32c19.72,18.66,39.62,37.14,59.45,55.69
	c0.53,0.49,1.04,1.01,1.55,1.52c6.95,7.09,7.66,14.86,1.88,20.57c-5.77,5.7-14.68,5.05-21.33-1.6
	c-24.07-24.07-48.13-48.14-72.19-72.21C235.09,237.69,234.4,237.12,233.27,236.11z"/>
<path class="st0" d="M210.51,212.98c-7.22-6.95-13.94-13.22-20.43-19.71c-15.98-15.98-31.84-32.08-47.78-48.09
	c-9.07-9.1-18.24-18.11-27.3-27.22c-4.21-4.23-4.11-5.96,0.49-9.56c11.45-8.97,24.18-10.88,37.88-6.41
	c18.3,5.97,32.72,17.89,45.35,31.69c11.45,12.51,21.81,26.06,32.15,39.53c6.4,8.34,4.46,17.53-3.55,24.2
	C221.66,202.15,216.47,207.43,210.51,212.98z"/>
</svg>
